<svg xmlns="http://www.w3.org/2000/svg" viewBox="0 0 130 110"><defs><style>.cls-1{fill:#9b9b9b;}</style></defs><title>Element 59</title><g id="Ebene_2" data-name="Ebene 2"><g id="Monky_alone" data-name="Monky alone"><rect class="cls-1" x="20" y="20" width="10" height="10"/><rect class="cls-1" x="20" y="30" width="10" height="10"/><rect class="cls-1" x="20" y="40" width="10" height="10"/><rect class="cls-1" x="20" y="50" width="10" height="10"/><rect class="cls-1" x="20" y="60" width="10" height="10"/><rect class="cls-1" x="20" y="70" width="10" height="10"/><rect class="cls-1" x="100" y="20" width="10" height="10"/><rect class="cls-1" x="100" y="30" width="10" height="10"/><rect class="cls-1" x="100" y="40" width="10" height="10"/><rect class="cls-1" x="100" y="50" width="10" height="10"/><rect class="cls-1" x="100" y="60" width="10" height="10"/><rect class="cls-1" x="100" y="70" width="10" height="10"/><rect class="cls-1" x="30" y="80" width="10" height="10"/><rect class="cls-1" x="40" y="90" width="10" height="10"/><rect class="cls-1" x="50" y="100" width="10" height="10"/><rect class="cls-1" x="60" y="100" width="10" height="10"/><rect class="cls-1" x="70" y="100" width="10" height="10"/><rect class="cls-1" x="80" y="90" width="10" height="10"/><rect class="cls-1" x="90" y="80" width="10" height="10"/><rect class="cls-1" x="30" y="20" width="10" height="10"/><rect class="cls-1" x="40" y="20" width="10" height="10"/><rect class="cls-1" x="50" y="20" width="10" height="10"/><rect class="cls-1" x="60" y="20" width="10" height="10"/><rect class="cls-1" x="70" y="20" width="10" height="10"/><rect class="cls-1" x="80" y="20" width="10" height="10"/><rect class="cls-1" x="90" y="20" width="10" height="10"/><rect class="cls-1" x="30" y="10" width="10" height="10"/><rect class="cls-1" x="90" y="10" width="10" height="10"/><rect class="cls-1" x="40" y="10" width="10" height="10"/><rect class="cls-1" x="50" y="10" width="10" height="10"/><rect class="cls-1" x="60" y="10" width="10" height="10"/><rect class="cls-1" x="70" y="10" width="10" height="10"/><rect class="cls-1" x="80" y="10" width="10" height="10"/><rect class="cls-1" x="40" width="10" height="10"/><rect class="cls-1" x="50" width="10" height="10"/><rect class="cls-1" x="60" width="10" height="10"/><rect class="cls-1" x="70" width="10" height="10"/><rect class="cls-1" x="80" width="10" height="10"/><rect class="cls-1" x="10" y="40" width="10" height="10"/><rect class="cls-1" x="10" y="60" width="10" height="10"/><rect class="cls-1" y="60" width="10" height="10"/><rect class="cls-1" y="50" width="10" height="10"/><rect class="cls-1" y="40" width="10" height="10"/><rect class="cls-1" x="110" y="40" width="10" height="10"/><rect class="cls-1" x="110" y="60" width="10" height="10"/><rect class="cls-1" x="120" y="60" width="10" height="10"/><rect class="cls-1" x="120" y="50" width="10" height="10"/><rect class="cls-1" x="120" y="40" width="10" height="10"/><rect class="cls-1" x="40" y="40" width="10" height="10"/><rect class="cls-1" x="80" y="40" width="10" height="10"/><rect class="cls-1" x="50" y="60" width="10" height="10"/><rect class="cls-1" x="70" y="60" width="10" height="10"/></g></g></svg>